<?xml version="1.0" standalone="no"?><svg xmlns="http://www.w3.org/2000/svg" viewBox="0 0 1440 320"><path fill="#0099ff" fill-opacity="1" d="M0,288L7.7,266.7C15.5,245,31,203,46,197.3C61.9,192,77,224,93,197.3C108.4,171,124,85,139,80C154.8,75,170,149,186,160C201.3,171,217,117,232,80C247.7,43,263,21,279,48C294.2,75,310,149,325,186.7C340.6,224,356,224,372,240C387.1,256,403,288,418,288C433.5,288,449,256,465,250.7C480,245,495,267,511,266.7C526.5,267,542,245,557,208C572.9,171,588,117,604,96C619.4,75,635,85,650,101.3C665.8,117,681,139,697,128C712.3,117,728,75,743,90.7C758.7,107,774,181,790,202.7C805.2,224,821,192,836,186.7C851.6,181,867,203,883,197.3C898.1,192,914,160,929,138.7C944.5,117,960,107,975,90.7C991,75,1006,53,1022,58.7C1037.4,64,1053,96,1068,117.3C1083.9,139,1099,149,1115,160C1130.3,171,1146,181,1161,165.3C1176.8,149,1192,107,1208,112C1223.2,117,1239,171,1254,160C1269.7,149,1285,75,1301,74.7C1316.1,75,1332,149,1347,202.7C1362.6,256,1378,288,1394,277.3C1409,267,1425,213,1432,186.7L1440,160L1440,320L1432.3,320C1424.5,320,1409,320,1394,320C1378.1,320,1363,320,1347,320C1331.6,320,1316,320,1301,320C1285.2,320,1270,320,1254,320C1238.7,320,1223,320,1208,320C1192.3,320,1177,320,1161,320C1145.8,320,1130,320,1115,320C1099.4,320,1084,320,1068,320C1052.9,320,1037,320,1022,320C1006.5,320,991,320,975,320C960,320,945,320,929,320C913.5,320,898,320,883,320C867.1,320,852,320,836,320C820.6,320,805,320,790,320C774.2,320,759,320,743,320C727.7,320,712,320,697,320C681.3,320,666,320,650,320C634.8,320,619,320,604,320C588.4,320,573,320,557,320C541.9,320,526,320,511,320C495.5,320,480,320,465,320C449,320,434,320,418,320C402.6,320,387,320,372,320C356.1,320,341,320,325,320C309.7,320,294,320,279,320C263.2,320,248,320,232,320C216.8,320,201,320,186,320C170.3,320,155,320,139,320C123.9,320,108,320,93,320C77.4,320,62,320,46,320C31,320,15,320,8,320L0,320Z"></path></svg>